<svg width="47" height="48" viewBox="0 0 47 48" fill="none" xmlns="http://www.w3.org/2000/svg">
<rect width="47" height="48" rx="10" fill="#F98418"/>
<path d="M24.7301 0.271875C24.3445 0.09375 23.9314 0 23.5 0C23.0685 0 22.6555 0.09375 22.2699 0.271875L4.98455 7.7625C2.96502 8.63437 1.45955 10.6687 1.46873 13.125C1.51463 22.425 5.25994 39.4406 21.0765 47.175C22.6096 47.925 24.3904 47.925 25.9234 47.175C41.74 39.4406 45.4853 22.425 45.5312 13.125C45.5404 10.6687 44.0349 8.63437 42.0154 7.7625L24.7301 0.271875ZM14.7701 26.8312C15.2107 26.9437 15.6789 27 16.1562 27C19.3967 27 22.0312 24.3094 22.0312 21V15H26.0887C27.1994 15 28.2183 15.6375 28.714 16.6594L29.375 18H35.25C36.0578 18 36.7187 18.675 36.7187 19.5V22.5C36.7187 26.6437 33.4324 30 29.375 30H24.9687V34.7531C24.9687 35.4375 24.4271 36 23.7478 36C23.5826 36 23.4174 35.9625 23.2705 35.8969L14.2101 31.9312C13.6043 31.6687 13.2187 31.0594 13.2187 30.3937C13.2187 30.1312 13.2738 29.8781 13.3931 29.6437L14.7701 26.8312ZM14.6875 15H19.0937V21C19.0937 22.6594 17.781 24 16.1562 24C14.5314 24 13.2187 22.6594 13.2187 21V16.5C13.2187 15.675 13.8797 15 14.6875 15ZM26.4375 19.5C26.4375 19.1022 26.2827 18.7206 26.0073 18.4393C25.7319 18.158 25.3583 18 24.9687 18C24.5792 18 24.2056 18.158 23.9302 18.4393C23.6547 18.7206 23.5 19.1022 23.5 19.5C23.5 19.8978 23.6547 20.2794 23.9302 20.5607C24.2056 20.842 24.5792 21 24.9687 21C25.3583 21 25.7319 20.842 26.0073 20.5607C26.2827 20.2794 26.4375 19.8978 26.4375 19.5Z" fill="black"/>
</svg>
