<svg width="19" height="20" viewBox="0 0 19 20" fill="none" xmlns="http://www.w3.org/2000/svg">
<path d="M18 0.625H0.75C0.335156 0.625 0 0.960156 0 1.375V18.625C0 19.0398 0.335156 19.375 0.75 19.375H18C18.4148 19.375 18.75 19.0398 18.75 18.625V1.375C18.75 0.960156 18.4148 0.625 18 0.625ZM17.25 17.875H12.9352V12.1141H15.3727L15.7383 9.28516H12.9352V7.47812C12.9352 6.65781 13.1625 6.1 14.3367 6.1H15.8344V3.56875C15.5742 3.53359 14.6859 3.45625 13.65 3.45625C11.4891 3.45625 10.0102 4.77578 10.0102 7.19687V9.28281H7.56797V12.1117H10.0125V17.875H1.5V2.125H17.25V17.875Z" fill="#F98418"/>
</svg>
