<svg width="20" height="20" viewBox="0 0 20 20" fill="none" xmlns="http://www.w3.org/2000/svg">
<path d="M9.75 14C10.8109 14 11.8283 13.5786 12.5784 12.8284C13.3286 12.0783 13.75 11.0609 13.75 10C13.75 8.93913 13.3286 7.92172 12.5784 7.17157C11.8283 6.42143 10.8109 6 9.75 6C8.68913 6 7.67172 6.42143 6.92157 7.17157C6.17143 7.92172 5.75 8.93913 5.75 10C5.75 11.0609 6.17143 12.0783 6.92157 12.8284C7.67172 13.5786 8.68913 14 9.75 14Z" stroke="#F98418" stroke-width="1.5" stroke-linecap="round" stroke-linejoin="round"/>
<path d="M0.75 14V6C0.75 4.67392 1.27678 3.40215 2.21447 2.46447C3.15215 1.52678 4.42392 1 5.75 1H13.75C15.0761 1 16.3479 1.52678 17.2855 2.46447C18.2232 3.40215 18.75 4.67392 18.75 6V14C18.75 15.3261 18.2232 16.5979 17.2855 17.5355C16.3479 18.4732 15.0761 19 13.75 19H5.75C4.42392 19 3.15215 18.4732 2.21447 17.5355C1.27678 16.5979 0.75 15.3261 0.75 14Z" stroke="#F98418" stroke-width="1.5"/>
<path d="M15.25 4.51002L15.26 4.49902" stroke="#F98418" stroke-width="1.5" stroke-linecap="round" stroke-linejoin="round"/>
</svg>
